<svg xmlns="http://www.w3.org/2000/svg" viewBox="0 0 671 539" width="671" height="539"><defs><clipPath id="a"><path d="M84.902 157.48h241.012v115.028H84.902z"/></clipPath><clipPath id="b"><path d="M345.086 157.48h241.012v115.028H345.086z"/></clipPath></defs><path d="M54.776 406.571v-11.448h57.295v11.448H89.147v45.82H77.699v-45.82z" fill="#d4d4d4" stroke="#d4d4d4" stroke-dasharray="0,229.35508512516589" stroke-dashoffset="229.126" stroke-linecap="square"/><path d="M123.519 452.391v-45.82h11.448v11.448h11.448v-11.448h11.448v11.448h-11.421v11.448h-11.448v22.924zm45.847-11.448v-22.924h11.393v-11.448h22.924v11.448h11.448v34.372h-34.372v-11.448zm11.448-.438h22.924v-21.911h-22.979zm45.847 11.886v-45.82h34.372v11.448h11.448v34.372h-11.448v-34.372h-22.924v34.372zm57.268 0v-11.448h22.814v-11.448h-22.924v-11.448h11.448v-11.448h34.372v11.448h-22.896v11.448h22.923v11.448h-11.448v11.448z" fill="#d4d4d4" stroke="#d4d4d4" stroke-linecap="square"/><path d="M341.224 440.943v-22.924h11.448v-11.448h34.372v11.448H352.7v22.924h34.371v11.448H352.7v-11.448zm57.295 0v-22.924h11.448v-11.448h22.924v11.448h11.448v22.924h-11.448v11.448h-22.924v-11.448zm11.448-.438h22.924v-21.911h-22.924zm45.847.438v-22.924h11.448v-11.448h22.979v-11.448h11.448v57.295h-34.427v-11.475zm11.914 0h22.513v-22.924h-22.458zm45.382 0v-22.924h11.448v-11.448h34.371v22.924h-11.448v11.448h11.448v11.448h-34.371v-11.448zm11.448-.438h11.448v-11.448h11.448v-10.572H524.53zm45.847.438v-22.924h11.448v-11.448h22.923v-11.448h11.448v57.295h-34.371v-11.475zm11.913 0h22.458v-22.924h-22.458z" fill="#929292" stroke="#929292" stroke-linecap="square"/><path d="M54.776 301.265V128.722h49.297v24.649H79.424v123.245h24.649v24.649zm561.448-172.543v172.543h-49.297v-24.649h24.649V153.371h-24.649v-24.649z" fill="#636363000"/><g clip-path="url(#a)"><path d="M-1196.325 160.218h124.974v15.609h-124.974zm148.4 0h70.305v15.609h-70.305zm93.73 0h140.583v15.609h-140.583zm226.496 0h140.583v15.609H-727.7zm328.043 0h93.731v15.609h-93.73zm-164.008 0h23.426v15.609h-23.426zm117.156 0h23.426v15.609h-23.426zm-70.304 0h46.852v15.609h-46.852zm-273.374 0h39.061v15.609h-39.061zm726.391 0h46.852v15.609h-46.852zm70.278 0h124.974v15.609H6.484zm148.4 0h39.061v15.609h-39.06zm62.487 0h31.244v15.609H217.37zm54.696 0h101.548v15.609H272.066zm124.948 0h93.73v15.609h-93.73zm117.156 0h70.305v15.609H514.17zm-796.669 0h54.67v15.609h-54.67zm78.122 0h62.487v15.609h-62.487zm85.913 0h31.243v15.609h-31.243zm-827.913 46.852h140.583v15.609h-140.583zm164.008 0h85.914v15.609h-85.913zm109.34 0h46.852v15.609h-46.852zm70.304 0h46.852v15.609h-46.852zm70.305 0h78.095v15.609h-78.095zm101.521 0h70.305v15.609H-430.9zm-765.426 0h31.244v15.609h-31.244zm54.67 0h85.912v15.609h-85.913zm109.338 0h62.487v15.609h-62.487zm695.148 0h85.913v15.609h-85.913zm109.34 0h46.851v15.609h-46.852zm70.304 0h70.304v15.609h-70.304zm93.73 0H76.788v15.609H-63.794zm226.496 0h140.582v15.609H162.701zm328.043 0h93.731v15.609h-93.73zm-164.008 0h23.426v15.609h-23.426zm117.156 0h23.426v15.609h-23.426zm-70.304 0h46.852v15.609h-46.852zm-273.374 0h39.061v15.609h-39.061zm-1054.409 46.88h46.853v15.608h-46.852zm70.279 0h124.974v15.608h-124.974zm148.4 0h39.06v15.608h-39.06zm62.487 0h31.243v15.608h-31.244zm54.696 0h101.548v15.608h-101.548zm124.947 0h93.73v15.608h-93.73zm117.157 0h46.852v15.608h-46.852zm-820.096 0h78.096v15.608h-78.096zm101.548 0h62.487v15.608h-62.487zm85.913 0h31.244v15.608h-31.244zm952.887 0H84.606v15.608H-55.977zm164.008 0h85.913v15.608h-85.913zm109.34 0h46.851v15.608H217.37zm70.304 0h46.852v15.608h-46.852zm70.304 0h78.096v15.608h-78.096zm101.522 0h124.974v15.608H459.501zm-765.426 0h31.243v15.608h-31.243zm54.67 0h85.912v15.608h-85.913zm109.338 0h62.487v15.608h-62.487z" fill="#d4d4d4"/></g><g clip-path="url(#b)"><path d="M-1196.325 160.218h124.974v15.609h-124.974zm148.4 0h70.305v15.609h-70.305zm93.73 0h140.583v15.609h-140.583zm226.496 0h140.583v15.609H-727.7zm328.043 0h93.731v15.609h-93.73zm-164.008 0h23.426v15.609h-23.426zm117.156 0h23.426v15.609h-23.426zm-70.304 0h46.852v15.609h-46.852zm-273.374 0h39.061v15.609h-39.061zm726.391 0h46.852v15.609h-46.852zm70.278 0h124.974v15.609H6.484zm148.4 0h39.061v15.609h-39.06zm62.487 0h31.244v15.609H217.37zm54.696 0h101.548v15.609H272.066zm124.948 0h93.73v15.609h-93.73zm117.156 0h70.305v15.609H514.17zm-796.669 0h54.67v15.609h-54.67zm78.122 0h62.487v15.609h-62.487zm85.913 0h31.243v15.609h-31.243zm-827.913 46.852h140.583v15.609h-140.583zm164.008 0h85.914v15.609h-85.913zm109.34 0h46.852v15.609h-46.852zm70.304 0h46.852v15.609h-46.852zm70.305 0h78.095v15.609h-78.095zm101.521 0h70.305v15.609H-430.9zm-765.426 0h31.244v15.609h-31.244zm54.67 0h85.912v15.609h-85.913zm109.338 0h62.487v15.609h-62.487zm695.148 0h85.913v15.609h-85.913zm109.34 0h46.851v15.609h-46.852zm70.304 0h70.304v15.609h-70.304zm93.73 0H76.788v15.609H-63.794zm226.496 0h140.582v15.609H162.701zm328.043 0h93.731v15.609h-93.73zm-164.008 0h23.426v15.609h-23.426zm117.156 0h23.426v15.609h-23.426zm-70.304 0h46.852v15.609h-46.852zm-273.374 0h39.061v15.609h-39.061zm-1054.409 46.88h46.853v15.608h-46.852zm70.279 0h124.974v15.608h-124.974zm148.4 0h39.06v15.608h-39.06zm62.487 0h31.243v15.608h-31.244zm54.696 0h101.548v15.608h-101.548zm124.947 0h93.73v15.608h-93.73zm117.157 0h46.852v15.608h-46.852zm-820.096 0h78.096v15.608h-78.096zm101.548 0h62.487v15.608h-62.487zm85.913 0h31.244v15.608h-31.244zm952.887 0H84.606v15.608H-55.977zm164.008 0h85.913v15.608h-85.913zm109.34 0h46.851v15.608H217.37zm70.304 0h46.852v15.608h-46.852zm70.304 0h78.096v15.608h-78.096zm101.522 0h124.974v15.608H459.501zm-765.426 0h31.243v15.608h-31.243zm54.67 0h85.912v15.608h-85.913zm109.338 0h62.487v15.608h-62.487z" fill="#929292"/></g></svg>